<?xml version="1.0" standalone="no"?>
<!DOCTYPE svg PUBLIC "-//W3C//DTD SVG 20010904//EN"
 "http://www.w3.org/TR/2001/REC-SVG-20010904/DTD/svg10.dtd">
<svg version="1.0" xmlns="http://www.w3.org/2000/svg"
 width="794.000000pt" height="1280.000000pt" viewBox="0 0 794.000000 1280.000000"
 preserveAspectRatio="xMidYMid meet">
<metadata>
Created by potrace 1.15, written by Peter Selinger 2001-2017
</metadata>
<g transform="translate(0.000000,1280.000000) scale(0.100000,-0.100000)"
fill="#000000" stroke="none">
<path d="M3440 12793 c-89 -14 -284 -58 -335 -75 -227 -78 -314 -197 -271
-369 18 -70 53 -131 180 -314 101 -147 129 -213 130 -314 l1 -75 -41 -31
c-100 -76 -269 -100 -619 -85 -126 5 -458 10 -736 10 l-506 0 -9 -47 c-5 -27
-9 -419 -10 -873 -1 -916 2 -878 -68 -1005 l-33 -60 -64 2 c-41 1 -91 11 -139
28 -84 30 -95 37 -265 145 -127 82 -203 123 -269 146 -46 17 -72 10 -143 -38
-98 -66 -161 -202 -212 -458 -34 -169 -39 -268 -16 -357 8 -32 19 -137 24
-233 6 -96 15 -191 21 -212 21 -73 176 -279 232 -309 32 -17 109 -12 170 11
31 12 114 58 185 102 201 128 284 168 348 168 72 0 141 -46 193 -128 l31 -47
5 -890 c2 -489 8 -915 13 -945 l8 -55 65 -8 c36 -5 405 -10 820 -12 791 -3
921 -9 945 -41 67 -89 79 -207 32 -308 -15 -33 -70 -119 -122 -192 -111 -153
-152 -236 -161 -319 -19 -186 117 -303 426 -366 126 -26 399 -35 545 -20 219
24 315 60 482 182 53 38 98 67 101 65 2 -3 -1 -19 -7 -37 -6 -18 -11 -70 -11
-118 l0 -85 63 -61 c36 -35 121 -97 204 -148 137 -84 179 -120 207 -176 54
-107 2 -226 -163 -368 -153 -131 -348 -245 -506 -296 -306 -99 -602 -99 -701
-1 -82 83 -83 204 -4 474 46 155 51 184 48 251 -3 65 -7 81 -31 112 -75 98
-179 92 -482 -30 -193 -78 -587 -239 -819 -335 -93 -39 -221 -88 -284 -109
-140 -49 -201 -79 -252 -125 -78 -71 -75 -123 21 -336 124 -273 247 -580 319
-793 164 -485 225 -577 390 -592 116 -11 202 57 357 280 166 238 236 299 348
301 45 0 61 -5 111 -38 207 -137 354 -376 439 -714 45 -180 50 -364 11 -457
-22 -52 -82 -111 -139 -136 -78 -34 -247 -38 -442 -10 -83 12 -160 25 -173 28
-20 5 -38 -10 -114 -88 l-91 -93 6 -76 c12 -152 66 -322 239 -755 210 -527
328 -785 403 -887 34 -47 37 -48 88 -48 45 0 110 23 457 166 223 91 504 206
625 256 121 49 308 126 415 170 1347 553 2438 993 2625 1059 218 78 324 129
371 181 35 39 36 43 30 95 -7 61 -15 82 -236 633 -231 576 -330 783 -467 977
-48 68 -71 78 -163 76 -99 -2 -176 -62 -278 -218 -100 -152 -147 -209 -199
-243 -133 -86 -277 -54 -384 85 -73 95 -237 357 -285 456 -77 160 -88 220 -89
457 0 197 1 206 23 237 12 17 48 44 80 60 51 25 67 28 152 27 63 -1 153 -12
265 -34 250 -48 347 -37 433 51 35 36 35 35 32 94 -5 123 -58 295 -185 600
-48 116 -122 311 -164 435 -122 354 -195 504 -277 566 -34 26 -45 29 -108 28
-97 -2 -199 -40 -466 -174 -206 -103 -319 -150 -715 -296 -195 -71 -396 -163
-469 -213 -25 -18 -46 -28 -46 -24 0 38 -26 149 -45 198 -14 33 -63 130 -110
215 -104 189 -118 230 -113 320 4 79 34 131 107 186 l44 34 839 0 c589 0 852
3 884 11 58 15 99 54 114 110 10 33 12 257 11 920 l-2 876 52 57 c66 72 111
96 183 96 75 0 144 -28 311 -123 165 -94 228 -122 319 -138 65 -11 68 -10 92
12 65 61 153 235 198 393 48 164 60 258 60 456 0 164 -3 198 -26 296 -50 211
-144 363 -274 440 -40 23 -42 24 -80 8 -73 -30 -176 -85 -287 -156 -128 -82
-226 -130 -313 -152 -96 -25 -103 -23 -172 47 l-62 62 -2 235 c-2 129 -1 453
1 720 4 473 -2 641 -30 833 l-11 77 -911 0 -911 0 -39 27 c-21 15 -53 47 -70
72 -30 43 -32 52 -32 131 0 100 15 137 125 314 171 276 189 388 84 505 -80 89
-207 132 -541 181 -187 28 -277 34 -343 23z"/>
</g>
</svg>
